<svg xmlns="http://www.w3.org/2000/svg" viewBox="-5.625 -5.625 180 180" fill="none" stroke="#000000" stroke-linecap="round" stroke-linejoin="round" id="Spider--Streamline-Tabler" height="180" width="180"><desc>Spider Streamline Icon: https://streamlinehq.com</desc><path d="M35.15625 28.125v14.0625l35.15625 35.15625" stroke-width="11.25"></path><path d="M17.578125 66.796875 28.125 77.34375h42.1875" stroke-width="11.25"></path><path d="M28.125 133.59375v-14.0625l42.1875 -42.1875" stroke-width="11.25"></path><path d="M133.59375 28.125v14.0625l-35.15625 35.15625" stroke-width="11.25"></path><path d="M151.171875 66.796875 140.625 77.34375h-42.1875" stroke-width="11.25"></path><path d="M140.625 133.59375v-14.0625l-42.1875 -42.1875" stroke-width="11.25"></path><path d="M56.25 105.46875a28.125 28.125 0 1 0 56.25 0 28.125 28.125 0 1 0 -56.25 0" stroke-width="11.25"></path><path d="M70.3125 63.28125a14.0625 14.0625 0 1 0 28.125 0 14.0625 14.0625 0 1 0 -28.125 0" stroke-width="11.25"></path></svg>